<?xml version="1.0" encoding="UTF-8"?>
<!DOCTYPE svg PUBLIC "-//W3C//DTD SVG 1.1//EN" "http://www.w3.org/Graphics/SVG/1.1/DTD/svg11.dtd">
<!-- Creator: CorelDRAW 2021 (64-Bit) -->
<svg xmlns="http://www.w3.org/2000/svg" xml:space="preserve" width="800px" height="600px" version="1.1" style="shape-rendering:geometricPrecision; text-rendering:geometricPrecision; image-rendering:optimizeQuality; fill-rule:evenodd; clip-rule:evenodd"
viewBox="0 0 639.36 479.52"
 xmlns:xlink="http://www.w3.org/1999/xlink"
 xmlns:xodm="http://www.corel.com/coreldraw/odm/2003">
 <defs>
  <style type="text/css">
   <![CDATA[
    .fil0 {fill:none}
    .fil4 {fill:#076E70}
    .fil1 {fill:#273C5A}
    .fil2 {fill:#FEFEFE}
    .fil3 {fill:#66C3D1;fill-rule:nonzero}
    .fil5 {fill:#FEFEFE;fill-rule:nonzero}
   ]]>
  </style>
 </defs>
 <g id="Слой_x0020_1">
  <metadata id="CorelCorpID_0Corel-Layer"/>
  <rect class="fil0" width="639.36" height="479.52"/>
  <path class="fil1" d="M325.24 47.35c103.88,0 188.09,84.21 188.09,188.09 0,103.88 -84.21,188.09 -188.09,188.09l0 0 -188.09 0 0 -188.09 0 0c0,-103.88 84.21,-188.09 188.09,-188.09z"/>
  <path class="fil2" d="M166.81 269.15l0 70.7c0,5.43 2.68,10.08 7.38,12.8l10.02 5.78c-1.56,1.11 -2.44,2.83 -2.44,4.79 0,2.17 1.07,4.03 2.95,5.12l61.23 35.35c4.7,2.71 10.08,2.71 14.77,0l61.23 -35.35c1.88,-1.09 2.96,-2.95 2.96,-5.12 0,-2.17 -1.08,-4.03 -2.96,-5.12l-61.23 -35.35c-4.69,-2.71 -10.07,-2.71 -14.77,0l-1.66 0.96 0 -11.53c0,-5.43 -2.69,-10.09 -7.39,-12.8l-61.23 -35.35c-1.88,-1.08 -4.03,-1.08 -5.91,0 -1.88,1.09 -2.95,2.95 -2.95,5.12z"/>
  <path class="fil3" d="M189.01 356.12l46.56 -26.19 0 -13.51c0,-2.17 -0.53,-4.17 -1.52,-5.89 -1,-1.73 -2.47,-3.19 -4.33,-4.27l-54.99 -31.75c-0.74,-0.42 -0.99,-1.36 -0.57,-2.1 0.43,-0.74 1.37,-0.99 2.11,-0.57l54.98 31.75c2.35,1.36 4.2,3.21 5.47,5.4 1.27,2.2 1.95,4.73 1.95,7.43l0 64.3 13.71 8.13c1.72,0.99 3.56,1.49 5.4,1.49 1.82,0 3.63,-0.48 5.33,-1.45l51.3 -29.62c0.74,-0.42 1.68,-0.17 2.11,0.57 0.43,0.73 0.17,1.68 -0.56,2.11l-51.32 29.62c-2.18,1.24 -4.52,1.86 -6.86,1.86 -2.37,0 -4.75,-0.64 -6.95,-1.91l-13.71 -8.12 0 0 -0.09 -0.06 -0.7 -0.41 -0.09 -0.06 -5.73 -3.43 -41.5 -23.32z"/>
  <path class="fil4" d="M64.52 96.79l133.63 0c-37.49,34.39 -61,83.77 -61,138.65l0 0 0 17.43 -56.08 0c-9.1,0 -16.55,-7.44 -16.55,-16.54l0 -139.54zm447.95 120.6l62.37 0 0 139.54c0,9.1 -7.45,16.54 -16.55,16.54l-105.29 0c37.1,-34.36 60.33,-83.48 60.33,-138.03 0,-6.09 -0.29,-12.11 -0.86,-18.05z"/>
  <path class="fil5" d="M100.39 235.56l65.21 0 0 -18.32c0,-9.12 -7.43,-16.55 -16.54,-16.55l-17.12 0 0 -68.82c0,-9.11 -7.43,-16.54 -16.55,-16.54l-31.55 0 0 103.69c0,9.11 7.43,16.54 16.55,16.54zm302.98 0l67.62 0 0 -18.32c0,-9.12 -7.43,-16.55 -16.54,-16.55l-19.53 0 0 -11.5 32.47 0 0 -12.32c0,-9.11 -7.43,-16.54 -16.55,-16.54l-15.92 0 0 -10.13 36.07 0 0 -18.33c0,-9.11 -7.43,-16.54 -16.54,-16.54l-67.62 0 0 103.69c0,9.11 7.43,16.54 16.54,16.54zm-138.26 0l31.55 0 0 -45.69 20.52 37.15c3,5.41 8.3,8.54 14.48,8.54l45.55 0 -42.08 -63.21 40.88 -57.02 -43.48 0c-5.92,0 -11,2.84 -14.1,7.87l-21.77 35.41 0 -26.74c0,-9.11 -7.43,-16.54 -16.55,-16.54l-31.55 0 0 103.69c0,9.11 7.43,16.54 16.55,16.54zm-86.28 0l31.55 0c9.11,0 16.54,-7.43 16.54,-16.54l0 -103.69 -31.55 0c-9.11,0 -16.54,7.43 -16.54,16.54l0 103.69z"/>
  <path class="fil3" d="M470.15 355.55l31.55 0c9.11,0 16.54,-7.43 16.54,-16.55l0 -33.44 37.28 -70.25 -45.69 0 -13.92 35.39 -10.67 -25.28c-2.64,-6.26 -8.45,-10.11 -15.24,-10.11l-8.19 0 -28.93 0 -26.07 0 -22.88 0 0 0.05 -44.97 0.1 0 103.54c0,9.12 7.43,16.55 16.54,16.55l54.57 0c33.49,0 40.71,-21.3 40.71,-33.5 0,-16.31 -11.17,-27.99 -26.8,-30.74l0 -0.35c9.96,-2.92 20.96,-11.5 20.96,-25.07 0,-3.07 -0.4,-7.44 -2.17,-11.93l27.38 51.6 0 49.99zm-83.1 -74.55l0 -16.83 4.47 0c8.42,0 10.65,4.29 10.65,8.42 0,4.12 -2.23,8.41 -10.65,8.41l-4.47 0zm0 45.69l0 -18.03 5.84 0c4.64,0 12.03,0.85 12.03,8.93 0,8.41 -7.56,9.1 -12.03,9.1l-5.84 0z"/>
 </g>
</svg>
